<svg width="200" height="200" viewBox="0 0 200 200" fill="none" xmlns="http://www.w3.org/2000/svg">
<path d="M84.346 175.549H84.41C91.084 175.524 96.492 167.97 96.492 158.647C96.492 156.959 96.316 155.325 95.984 153.789L124.158 149.952C124.053 150.862 123.998 151.8 123.998 152.761C123.998 161.029 128.076 167.733 133.105 167.733C138.136 167.733 142.212 161.029 142.212 152.761C142.212 150.934 142.015 149.188 141.651 147.573L150.344 146.387C152.592 146.079 156.108 143.659 156.108 139.739L165.465 88.0637C165.465 84.6257 161.059 83.2338 159.869 83.3288L66.148 71.7558C66.148 71.7558 62.656 58.3507 60.191 55.8547C58.796 54.3737 57.271 53.3458 55.253 52.9318C54.978 52.8748 54.702 52.8278 54.429 52.7878L47.322 51.7297C47.322 51.7297 19.646 47.3798 14.929 46.6928C10.212 46.0068 8.43504 48.2418 9.15404 51.8408C9.58604 54.0088 11.414 63.5656 12.019 66.8356C12.628 70.1036 14.263 71.2117 17.869 71.8017C21.474 72.3947 38.057 74.9518 38.057 74.9518L53.328 151.567C54.117 156.136 56.176 159.244 63.4 158.225L72.316 157.01C72.279 157.548 72.259 158.096 72.259 158.647C72.262 167.97 77.672 175.524 84.346 175.549Z" fill="url(#paint0_linear_2866_555)"/>
<path d="M49.1094 130.404C65.9924 128.061 85.4394 126.725 106.134 126.725C124.72 126.725 142.302 127.801 157.923 129.719L156.109 139.744C156.109 143.662 152.591 146.082 150.343 146.39L141.65 147.573C142.015 149.19 142.212 150.935 142.212 152.761C142.212 161.031 138.134 167.737 133.105 167.737C128.076 167.737 123.996 161.031 123.996 152.761C123.996 151.803 124.053 150.866 124.156 149.957L95.9844 153.792C96.3144 155.33 96.4924 156.962 96.4924 158.65C96.4924 167.99 91.0664 175.556 84.3764 175.556C77.6864 175.556 72.2624 167.99 72.2624 158.65C72.2624 158.1 72.2824 157.554 72.3194 157.015L63.4014 158.228C56.1764 159.249 54.1184 156.14 53.3314 151.57L49.1094 130.404Z" fill="url(#paint1_linear_2866_555)"/>
<path d="M72.2271 112.383C72.5811 119.13 78.3321 124.31 85.0791 123.957C91.8231 123.603 97.0051 117.848 96.6491 111.103C96.2971 104.358 90.5441 99.1768 83.7991 99.5308C77.0551 99.8828 71.8731 105.637 72.2271 112.383ZM82.9141 82.557C86.3871 82.373 89.2511 81.8009 89.5041 86.6339C89.5391 87.2819 89.8381 88.0479 89.8711 88.6959C89.9411 89.9919 92.7991 91.1438 93.5101 91.1068C95.1641 91.0208 97.2111 87.2699 99.4161 87.1539C101.687 87.0359 107.291 93.441 107.334 94.286C107.451 96.523 103.938 98.9518 104.022 100.574C104.346 106.734 110.778 102.036 113.393 105.77L113.86 114.681C110.647 117.916 104.762 114.65 105.085 120.812C105.165 122.359 108.599 124.721 109.108 126.768C106.731 126.775 104.336 126.8 101.922 126.841C87.7831 127.089 74.1041 127.484 61.5681 128.845C61.8141 126.741 64.9511 124.482 64.8691 122.918C64.7421 120.519 63.1091 119.759 61.7151 119.834C56.0391 120.131 55.5141 118.144 55.2581 113.274C55.1641 111.524 54.6471 107.194 57.6621 107.035C59.8981 106.918 63.9981 106.312 63.8071 102.681C63.7231 101.06 59.9751 99.0108 59.8561 96.7728C59.7391 94.5358 66.1431 88.8988 66.9851 88.8528C69.2231 88.7368 71.6511 92.2508 73.2721 92.1658C75.6721 92.0418 76.4341 90.4399 76.3541 88.8839C76.3191 88.2339 76.7231 86.0018 76.6881 85.3528C76.5361 82.4368 82.2331 82.592 82.9141 82.557Z" fill="url(#paint2_linear_2866_555)"/>
<path d="M104.786 67.02C104.786 43.26 124.046 24 147.806 24C171.564 24 190.827 43.26 190.827 67.02C190.827 90.778 171.567 110.038 147.806 110.038C124.045 110.038 104.786 90.778 104.786 67.02Z" fill="#00F5F5"/>
<path d="M105.871 76.6631L159.871 83.3301C161.06 83.2351 165.467 84.6289 165.467 88.0649L161.917 107.67C157.496 109.207 152.749 110.037 147.805 110.037C127.362 110.038 110.248 95.7791 105.871 76.6631Z" fill="url(#paint3_linear_2866_555)"/>
<path d="M162.541 42.7886C162.541 48.4676 157.848 51.6597 153.49 51.6597C149.187 51.6597 144.439 48.4716 144.439 42.7886C144.439 37.4666 149.132 33.6895 153.49 33.6895C158.528 33.6895 162.541 37.8976 162.541 42.7886ZM157.004 64.6765C157.004 73.0655 151.68 81.0294 151.68 89.2734C151.68 92.5864 152.834 93.1077 155.621 93.1077C157.189 93.1077 161.453 90.7245 161.637 92.6155C162.198 98.4465 151.626 100.348 147.633 100.348C142.26 100.348 135.919 97.9306 135.919 90.7646C135.919 82.2326 141.457 73.5444 141.457 65.7424C141.457 62.7504 140.752 62.2285 137.73 62.2285C135.837 62.2285 135.214 62.2796 132.849 63.2146C132.201 63.4726 131.683 63.1186 131.683 62.4216V61.6675C131.663 56.9125 142.734 54.7725 145.824 54.7725C151.782 54.7735 157.004 57.5785 157.004 64.6765Z" fill="#E0FFFF"/>
<defs>
<linearGradient id="paint0_linear_2866_555" x1="7.83206" y1="110.261" x2="165.616" y2="113.337" gradientUnits="userSpaceOnUse">
<stop stop-color="#5F1DFB"/>
<stop offset="0.1446" stop-color="#6620FB"/>
<stop offset="0.3474" stop-color="#7827FC"/>
<stop offset="0.5848" stop-color="#9632FD"/>
<stop offset="0.8462" stop-color="#BF42FE"/>
<stop offset="1" stop-color="#DB4DFF"/>
</linearGradient>
<linearGradient id="paint1_linear_2866_555" x1="49.1602" y1="147.493" x2="154.049" y2="154.603" gradientUnits="userSpaceOnUse">
<stop stop-color="#1B2BBB"/>
<stop offset="0.6138" stop-color="#0D6DD2"/>
<stop offset="0.9677" stop-color="#068FDE"/>
</linearGradient>
<linearGradient id="paint2_linear_2866_555" x1="61.6011" y1="82.8455" x2="101.211" y2="132.358" gradientUnits="userSpaceOnUse">
<stop stop-color="#1A2AB7"/>
<stop offset="1" stop-color="#833DDE"/>
</linearGradient>
<linearGradient id="paint3_linear_2866_555" x1="105.726" y1="81.1792" x2="166.731" y2="102.253" gradientUnits="userSpaceOnUse">
<stop stop-color="#1E30D2"/>
<stop offset="1" stop-color="#04DBF0"/>
</linearGradient>
</defs>
</svg>
